<svg xmlns="http://www.w3.org/2000/svg" viewBox="0 0 133.023 24.573"><title>diagnostics</title><ellipse cx="12.321" cy="12.287" rx="12.321" ry="12.287" style="fill:#e92700"/><path d="M12.481,22.7A10.239,10.239,0,1,1,22.749,12.46,10.265,10.265,0,0,1,12.481,22.7Z" transform="translate(-0.16 -0.174)" style="fill:#e92700"/><path d="M18.642,12.022V7.085H7.091v4.937H8.569v1.644H7.091V18.6H18.642V13.666H17.163V12.022h1.478ZM15.095,8.375a1.179,1.179,0,1,1-1.182,1.179A1.181,1.181,0,0,1,15.095,8.375Zm-6.759.293h3.323v0.48H8.335V8.668Zm0,1.771V9.959h3.323v0.48H8.335Zm3.323,6.581H8.335V16.54h3.323v0.48Zm0-1.291H8.335v-0.48h3.323v0.48Zm3.436,1.584a1.179,1.179,0,1,1,1.182-1.179A1.181,1.181,0,0,1,15.095,17.314Zm1.587-3.648H9.051V12.022h7.631v1.644Z" transform="translate(-0.16 -0.174)" style="opacity:0.30000001192092896;isolation:isolate"/><path d="M18.257,11.638V6.7H6.706v4.937H8.184v1.644H6.706V18.22H18.257V13.282H16.778V11.638h1.478ZM14.71,7.991A1.179,1.179,0,1,1,13.528,9.17,1.181,1.181,0,0,1,14.71,7.991ZM7.95,8.284h3.323v0.48H7.95V8.284Zm0,1.771V9.575h3.323v0.48H7.95Zm3.323,6.581H7.95v-0.48h3.323v0.48Zm0-1.291H7.95v-0.48h3.323v0.48ZM14.71,16.93a1.179,1.179,0,1,1,1.182-1.179A1.181,1.181,0,0,1,14.71,16.93ZM16.3,13.282H8.666V11.638H16.3v1.644Z" transform="translate(-0.16 -0.174)" style="fill:#fff"/><path d="M29.461,18.6V6h6.748a2.592,2.592,0,0,1,2.022.837,2.987,2.987,0,0,1,.756,2.079V15.4a2.934,2.934,0,0,1-1.814,2.9,3.216,3.216,0,0,1-1.323.307H29.461Zm6.294-1.818a1.269,1.269,0,0,0,1.323-1.53V9.117a0.721,0.721,0,0,1-.019-0.126,1.391,1.391,0,0,0-.368-0.918A1.529,1.529,0,0,0,35.7,7.821H31.371v8.964h4.385Z" transform="translate(-0.16 -0.174)" style="fill:#20a8d8"/><path d="M41.292,18.6V6H43.2V18.6H41.292Z" transform="translate(-0.16 -0.174)" style="fill:#20a8d8"/><path d="M44.2,18.6l4.4-11.431a1.652,1.652,0,0,1,1.474-1.3,1.715,1.715,0,0,1,1.606,1.312L56.054,18.6H54.022L53,15.976H47.27L46.237,18.6H44.2Zm8.1-4.446L50.1,8.43,47.95,14.157H52.3Z" transform="translate(-0.16 -0.174)" style="fill:#20a8d8"/><path d="M57.055,15.346V9.315Q57.055,6,60.589,6h5.065V7.821H60.287a0.577,0.577,0,0,1-.094.018,1.536,1.536,0,0,0-.964.387,1.43,1.43,0,0,0-.264.963v6.264a2.208,2.208,0,0,0,.038.271,1.182,1.182,0,0,0,1.021,1.062H63.2a1.23,1.23,0,0,0,1.4-1.1,0.686,0.686,0,0,0,.019-0.2V11.421h1.909v3.87a3.606,3.606,0,0,1-.3,1.62,2.9,2.9,0,0,1-1.181,1.314A3.91,3.91,0,0,1,63.2,18.6H60.552A3.935,3.935,0,0,1,58.87,18.3a3.182,3.182,0,0,1-1.408-1.17A3.456,3.456,0,0,1,57.055,15.346Z" transform="translate(-0.16 -0.174)" style="fill:#20a8d8"/><path d="M68.83,18.6V7.751q0-1.874,1.581-1.875a2.886,2.886,0,0,1,.6.073A1.785,1.785,0,0,1,72.2,7.162l4.023,9.311V6h1.909V17.091a1.659,1.659,0,0,1-.416,1.125,1.626,1.626,0,0,1-1.1.55,1.769,1.769,0,0,1-1.89-1.261L70.738,8.414V18.6H68.83Z" transform="translate(-0.16 -0.174)" style="fill:#20a8d8"/><path d="M80.435,15.075V9.531a3.384,3.384,0,0,1,1.021-2.754,4.773,4.773,0,0,1,3-.774h1.455a4.773,4.773,0,0,1,3,.774A3.384,3.384,0,0,1,89.94,9.531v5.544a3.381,3.381,0,0,1-1.021,2.754,4.766,4.766,0,0,1-3,.774H84.46a3.719,3.719,0,0,1-3.591-1.765A3.6,3.6,0,0,1,80.435,15.075Zm3.748,1.71H86.23a2.194,2.194,0,0,0,1.394-.342,1.587,1.587,0,0,0,.408-1.26V9.459a1.67,1.67,0,0,0-.4-1.287,2.146,2.146,0,0,0-1.4-.351H84.183a2.231,2.231,0,0,0-1.423.351,1.622,1.622,0,0,0-.417,1.287v5.688a1.622,1.622,0,0,0,.417,1.287A2.235,2.235,0,0,0,84.183,16.785Z" transform="translate(-0.16 -0.174)" style="fill:#20a8d8"/><path d="M91.888,18.6V16.785h5.48a1.257,1.257,0,0,0,.747-0.335,0.913,0.913,0,0,0,.331-0.7V14.145a1.085,1.085,0,0,0-1.194-1.031,0.823,0.823,0,0,0-.209-0.018h-1.99a3.643,3.643,0,0,1-2.18-.667,2.234,2.234,0,0,1-.985-1.89v-1.6a2.684,2.684,0,0,1,1.625-2.7A3.993,3.993,0,0,1,95.063,6h5.368V7.821H94.874a0.32,0.32,0,0,1-.095.018A0.978,0.978,0,0,0,93.8,8.865v1.242a1.133,1.133,0,0,0,1.247,1.314h2.324a3.333,3.333,0,0,1,1.626.414,2.24,2.24,0,0,1,1.36,2.017v1.979a2.554,2.554,0,0,1-1.226,2.25,3.115,3.115,0,0,1-1.754.522H91.888Z" transform="translate(-0.16 -0.174)" style="fill:#20a8d8"/><path d="M101.318,7.821V6h7.617V7.821h-2.854V18.6h-1.908V7.821h-2.854Z" transform="translate(-0.16 -0.174)" style="fill:#20a8d8"/><path d="M110.221,18.6V6h1.908V18.6h-1.908Z" transform="translate(-0.16 -0.174)" style="fill:#20a8d8"/><path d="M114.454,15.579V9.1a3.092,3.092,0,0,1,.831-2.223A2.936,2.936,0,0,1,117.516,6h5.557V7.821h-5.312a1.208,1.208,0,0,0-1.4,1.332v6.283a1.286,1.286,0,0,0,.406.954,1.37,1.37,0,0,0,.992.4h5.273V18.6h-5.67a3.1,3.1,0,0,1-1.663-.54A2.729,2.729,0,0,1,114.454,15.579Z" transform="translate(-0.16 -0.174)" style="fill:#20a8d8"/><path d="M124.641,18.6V16.785h5.48a1.257,1.257,0,0,0,.747-0.335,0.913,0.913,0,0,0,.331-0.7V14.145A1.085,1.085,0,0,0,130,13.113,0.823,0.823,0,0,0,129.8,13.1h-1.99a3.643,3.643,0,0,1-2.18-.667,2.234,2.234,0,0,1-.985-1.89v-1.6a2.684,2.684,0,0,1,1.625-2.7A3.993,3.993,0,0,1,127.815,6h5.368V7.821h-5.557a0.32,0.32,0,0,1-.095.018,0.978,0.978,0,0,0-.982,1.026v1.242a1.133,1.133,0,0,0,1.247,1.314h2.324a3.333,3.333,0,0,1,1.626.414,2.24,2.24,0,0,1,1.36,2.017v1.979a2.554,2.554,0,0,1-1.226,2.25,3.115,3.115,0,0,1-1.754.522h-5.487Z" transform="translate(-0.16 -0.174)" style="fill:#20a8d8"/></svg>